<svg xmlns="http://www.w3.org/2000/svg" viewBox="0 0 1080 1080"><defs><style>.cls-1{fill:#ffdab6;}</style></defs><g id="Layer_2" data-name="Layer 2"><g id="Layer_1-2" data-name="Layer 1"><circle class="cls-1" cx="540" cy="540" r="540"/><path d="M517.56,758h31.61v13.56a9.11,9.11,0,1,0,18.2,0V756.38c6.06-.54,8.19-2.41,10.92-5.48a17.17,17.17,0,0,0,4.37-13.3v-1l-3-8.88a9.42,9.42,0,0,0-12-5.8c-4.93,1.72-7.51,8.14-5.79,13.07l1.34,4.85H520.41l1.33-4.85c1.72-4.93-.88-10.83-5.8-12.55a9.32,9.32,0,0,0-12,5.54l-3.1,8.75-.12,1a18.5,18.5,0,0,0,4.15,14C508.07,755.26,512.7,758,517.56,758Z"/><path d="M541.81,800.21c-14.11,0-26,5.48-31.69,14.66a9.45,9.45,0,0,0,16,10c2.18-3.51,8.34-5.77,15.66-5.77,7.48,0,13.65,2.3,15.73,5.87a9.44,9.44,0,0,0,16.32-9.51C568.3,805.91,556.32,800.21,541.81,800.21Z"/><path d="M600.22,607.76l9.37-.59a9.44,9.44,0,1,0-1.19-18.85l-9.36.59c-1.31.16-3.18-1.24-5-3.45a9.44,9.44,0,1,0-14.69,11.86c5.48,6.8,12.38,10.48,19.54,10.48C599.35,607.8,599.79,607.79,600.22,607.76Z"/><path d="M634.1,471.9v89.45a9.11,9.11,0,1,0,18.2,0V471.9c0-8.54-2.61-16.85-5.26-24-1.82-4.89-7.86-7.38-12.74-5.58s-6.14,7.25-4.33,12.14C631.86,459.54,634.1,465.57,634.1,471.9Z"/><path d="M749.37,482.29v89.44a9.11,9.11,0,1,0,18.2,0V482.29c0-8.53-2.8-16.84-5.46-24-1.81-4.89-7.93-7.38-12.83-5.58s-6,7.24-4.19,12.13C747,469.93,749.37,476,749.37,482.29Z"/><path d="M826.8,473.35c1,.84,1.39,3.12,1.11,5.94a9.45,9.45,0,0,0,8.48,10.32c.31,0,.62.05.93.05a9.44,9.44,0,0,0,9.39-8.52c.91-9.22-1.77-17.05-7.53-22.06a9.45,9.45,0,1,0-12.38,14.27Z"/><path d="M513.63,140.57a9.44,9.44,0,1,0-17.44,7.23l5.56,13.42A9.44,9.44,0,1,0,519.19,154Z"/><path d="M583.8,135.46a9.43,9.43,0,0,0-12.34,5.11l-9.53,23-19.39,8-7-2.9a9.44,9.44,0,0,0-7.22,17.44l10.62,4.4a9.44,9.44,0,0,0,7.23,0l26.61-11a9.44,9.44,0,0,0,5.11-5.11l11-26.61A9.44,9.44,0,0,0,583.8,135.46Z"/><path d="M463.78,612.41h11.74a34.86,34.86,0,0,0,34.91-34.81,9.39,9.39,0,0,0-9.44-9.39,9.67,9.67,0,0,0-9.44,9.71,16.28,16.28,0,0,1-16,16.29H463.78a9.11,9.11,0,1,0,0,18.2Z"/><path d="M503.67,542.43a9.16,9.16,0,0,0,9.1-9.44V455.86a9.11,9.11,0,1,0-18.2,0V533A9.15,9.15,0,0,0,503.67,542.43Z"/><path d="M747,599.91a9.45,9.45,0,0,0-10-8.83l-4.51.28c-1.21.1-3.18-1.24-5-3.45a9.44,9.44,0,1,0-14.69,11.87c5.49,6.79,12.38,10.47,19.53,10.47.44,0,.88,0,1.32,0l4.51-.28A9.45,9.45,0,0,0,747,599.91Z"/><path d="M834.58,586.8a9.44,9.44,0,1,0-18.79-1.86c-.91,9.23,1.77,17.06,7.53,22.07a9.45,9.45,0,1,0,12.38-14.27C834.73,591.9,834.3,589.62,834.58,586.8Z"/><path d="M830,422.66h-.48a281.63,281.63,0,0,0-23.42-74c-4.17-9.52-11.95-21-11.95-21a319.79,319.79,0,0,0-66.64-80.15c-33.91-29.24-73.16-51.1-113.58-63.15,5.15-12.53,10.4-25.16,15.36-37.7a15.33,15.33,0,0,0-.2-10.39c-6.8-17.49-14.18-34.88-21.28-52.37A13.44,13.44,0,0,0,600,76.21c-17-6.9-34-13.6-51-20.6-1.27-.48-2.43-1.36-3.6-1.36H540c-16.51,6-32.74,13.89-49.45,20.21-7.67,2.91-10.49,7.19-13.41,14.86-6.51,16.71-12.82,32.74-18.94,49.26v5.34c0,12.92,9.13,25.55,14.28,38.48-41.58,11.46-83,33-118,62.76-27.4,23-50.42,51.78-67.91,80.93a140.21,140.21,0,0,0-12.73,21.37,5.5,5.5,0,0,1-.68,1.36A283.18,283.18,0,0,0,249.85,421h-.09c-26,0-46.44,21.18-46.44,47.22V594.91c0,26.13,20.4,47.12,46.44,47.12a40.75,40.75,0,0,0,7.67-.68c1.65,9,1.46,25.94-11.75,47.31l-10,15.84,18.55-1.36a97.06,97.06,0,0,0,14.67-3c1.36,7.87,3,15.35,4.86,22.74,0,0,3,11.56,5.54,19,35.07,108.52,125.52,167.49,260.27,167.49,6.71,0,13.22-.19,19.72-.48,0,0,37-2,56.65-6.42,48.57-9.32,88.31-28.17,119.2-56,30.6-27.1,52.76-63.15,66.55-107.06.2-.68.39-1.36.58-1.94,6.22-18.17,10.21-42.94,10.21-42.94,20,17.68,39.25,16.8,46.73,15.64a.7.7,0,0,1,.38-.1,6.52,6.52,0,0,1,2.92-.68c-12.63-21.86-12-52.85-11.56-61.59h-.1a8.38,8.38,0,0,1,.2-1.66,3.28,3.28,0,0,0,.09-.68,51.34,51.34,0,0,0,20.7-27.2,46.37,46.37,0,0,0,4.85-21.66V469.87A46.84,46.84,0,0,0,830,422.66ZM475.83,138.09c5.64-14,11.37-27.88,17.29-41.77A8.36,8.36,0,0,1,497.2,92c14.38-6.21,28.66-12,42.85-17.87.87-.39,1.84-.68,2.52-1a32.45,32.45,0,0,1,3.5,1.26c13.89,5.73,27.79,11.37,41.49,17.2a11.87,11.87,0,0,1,4.66,4.66c6,13.7,11.66,27.59,17.2,41.48a11.48,11.48,0,0,1,0,7.19c-5.54,13.7-11.18,27.3-17.1,40.9a11.48,11.48,0,0,1-5,5.15c-13.7,5.83-27.59,11.56-41.39,17a8.83,8.83,0,0,1-6.7,0q-20.84-8.16-41.39-17.19a10.62,10.62,0,0,1-4.76-4.66q-8.88-20.55-17.19-41.39A10.56,10.56,0,0,1,475.83,138.09ZM360.22,264.69a342,342,0,0,0-22.64,33.9,9.34,9.34,0,0,0,3.3,12.83,9,9,0,0,0,4.86,1.36,9.56,9.56,0,0,0,8.16-4.67c30.7-52.75,70.34-87.73,117.85-104.73a165.34,165.34,0,0,0-18.36,18.56,9.39,9.39,0,0,0,1.16,13.21,10.2,10.2,0,0,0,6,2.33,9.33,9.33,0,0,0,7.38-3.4,152.29,152.29,0,0,1,26-24.19c12.34,4.86,24.87,10,36.92,15.06v36.72a9.33,9.33,0,0,0,9.13,9.52c5.24,0,9-4.37,9-9.52V227.28c12.25-4.86,24.1-9.71,35.95-14.67,30.41,21.47,53.05,56.74,67.81,105.31a9.45,9.45,0,0,0,8.94,6.71,11.64,11.64,0,0,0,2.72-.39,9.48,9.48,0,0,0,6.32-11.85c-13.7-45.37-34.69-80.74-62.28-105.12,73.93,28.85,115.42,89,138.06,140.09a9.59,9.59,0,0,0,12.53,4.86A9.57,9.57,0,0,0,764,339.69c-11.47-25.94-27.5-54-49.75-79.47,49.94,42.65,86.47,102,96.87,166.42a48.38,48.38,0,0,0-14.87,10.69c-3-10.89-7.67-27.69-15.06-51.3a9.4,9.4,0,0,0-11.66-6.32,9.53,9.53,0,0,0-6.31,11.86c2.33,7.19,4.18,13.7,5.93,19.72a66.07,66.07,0,0,0-80.74,11,505.72,505.72,0,0,0-5.93-59.07,9.45,9.45,0,1,0-18.65,3c2,12.34,3.3,23.7,4.37,34.2a65.8,65.8,0,0,0-45.66-18.56H596.4c-18.36,0-35.07,8.06-47.32,20.4V314.62c0-5.34-3.79-9.52-9-9.52a9.21,9.21,0,0,0-9.13,9.52v87.63a67.36,67.36,0,0,0-47.8-20.4H457a66.67,66.67,0,0,0-46.44,19.24c2.82-34.2,10.3-83.17,31.19-126.2a9.22,9.22,0,0,0-4.37-12.54,9.37,9.37,0,0,0-12.63,4.37c-27.11,56.06-33,120.18-34.2,154.28a66,66,0,0,0-46.83-19.52,64.35,64.35,0,0,0-34.68,10,664.86,664.86,0,0,1,23.9-65.28,9.46,9.46,0,0,0-4.86-12.44,9.68,9.68,0,0,0-12.53,5.05,679.85,679.85,0,0,0-32.94,96.38,45.77,45.77,0,0,0-14.18-10C278.8,363.68,313.2,307,360.22,264.69ZM785.75,468.41V580.92c0,26-22.44,47.21-48.48,47.21S688.69,607,688.69,580.92V468.41c0-26,22.54-47.31,48.58-47.31S785.75,442.38,785.75,468.41ZM517,641.54a66.14,66.14,0,0,0,22.74-22.73,66.05,66.05,0,0,0,32.35,27.78,9.14,9.14,0,0,1,.68,7.1c-1.85,5.34-7.68,10.39-13.51,14.08-2.52-9.91-8.35-16-12.72-18.55l-8.45-5.06-4.67,8.75c-3.69,6.7-12.34,10-21.08,11.36C517.41,654.85,517.9,647.18,517,641.54Zm-33.9-10.88H457c-25.94,0-47.31-19.72-47.31-45.76V448.3c0-26,21.37-48.18,47.31-48.18h26.14c26,0,47.8,22.15,47.8,48.18V584.9C530.92,610.94,509.15,630.66,483.12,630.66Zm66-45.56V448.5c0-26,21.38-48.38,47.32-48.38h26.13c26.14,0,48,22.34,48,48.38V585.1c0,26-21.86,45.56-48,45.56H596.4C570.46,630.66,549.08,611.13,549.08,585.1ZM391.5,467.54v112.7c0,26-22.54,47.12-48.57,47.12s-48.58-21.09-48.58-47.12V467.54c0-26,22.54-47.12,48.58-47.12S391.5,441.5,391.5,467.54ZM248.88,623.18c-15.64,0-27.4-12.73-27.4-28.27V468.22c0-15.74,11.76-28.37,27.4-28.37s27.2,12.63,27.2,28.37V594.91C276.08,610.45,264.43,623.18,248.88,623.18Zm32.55,48.58a9.5,9.5,0,0,0-7.19-2.53c3.69-15.16,2.33-27.2.48-34.68a48.15,48.15,0,0,0,15.06-16.23,67.46,67.46,0,0,0,28.27,22.74c-5.05,9.32-8.35,21.86-10.39,30.7a73.2,73.2,0,0,0-7-4.67l-10-14.38-6.42,14.67A13,13,0,0,1,281.43,671.76ZM539.56,890.54C359.64,890.54,302,786,286.58,692a41.93,41.93,0,0,0,8.35-7.19A125.62,125.62,0,0,0,310,694.1L322,701l1.84-13.89c1.36-10,6.12-31.87,13.22-41.2a50.27,50.27,0,0,0,6.6.29,66.91,66.91,0,0,0,18.85-2.62,16,16,0,0,0-.1,2.33c0,15.45,23.9,28.18,39.54,28.18,14.87,0,33.72-12.54,35.56-27,6.22,1.85,12.73,1.85,19.43,1.85h26.14c5.24,0,10.2.29,14.86-.69-1,4.18-4,10.79-11.85,18.46L471.75,681l19.92,2.33c1.45.09,31.18,3.49,49.45-10.88a27.46,27.46,0,0,1,.29,9.13l-1.94,15.74,14.67-5.64c3.1-1.16,30.21-12.24,36.53-32.06A33.13,33.13,0,0,0,592,649.7c1.45.2,3-.77,4.37-.77h26.13c6.71,0,13.21,0,19.43-1.85,1.95,14.47,20.89,26.33,35.56,26.33,15.64,0,39.74-12.34,39.74-27.89,0-.48-.2-1-.2-1.45a62.91,62.91,0,0,0,18.85,2.81,67.47,67.47,0,0,0,27.3-5.82c2.33,9.81,2.14,27.49.29,42.06L761,701.78l33.13-18.66C780.89,778.62,725.81,890.54,539.56,890.54Zm270-225.29-3.79-10.2-22,12.33c.48-11.85,0-26.52-4.18-37a71.77,71.77,0,0,0,9.72-10.49,47.37,47.37,0,0,0,41,23.8h2c-2.34,14.18.68,31.28,3.88,43.43A39.85,39.85,0,0,1,809.55,665.25Zm49-68.59c0,15.44-11.66,28.17-27.21,28.17-15.74,0-27.39-12.73-27.39-28.17V469.87c0-15.64,11.65-28.37,27.39-28.37,15.55,0,27.21,12.73,27.21,28.37Z"/><path d="M252.29,587a9.44,9.44,0,1,0-18.8-1.84c-.9,9.22,1.78,17.06,7.54,22A9.44,9.44,0,1,0,253.4,592.9C252.44,592.06,252,589.78,252.29,587Z"/><path d="M364.13,566.67a9.15,9.15,0,0,0,9.1-9.44V485a9.11,9.11,0,1,0-18.2,0v72.24A9.16,9.16,0,0,0,364.13,566.67Z"/><path d="M355,595.06a9.44,9.44,0,0,0-10-8.83l-4.5.29c-1.3.1-3.19-1.24-5-3.46a9.45,9.45,0,0,0-14.7,11.87c5.49,6.79,12.38,10.47,19.55,10.47.43,0,.87,0,1.3,0l4.51-.28A9.44,9.44,0,0,0,355,595.06Z"/><path d="M422,745.91a43.6,43.6,0,1,0-43.59,43.6A43.6,43.6,0,0,0,422,745.91Zm-71.39-5.74a5.65,5.65,0,0,1,0-8l14.87-14.88a5.67,5.67,0,0,1,8,8l-14.87,14.87a5.66,5.66,0,0,1-8,0Zm12.85,31.76a5.67,5.67,0,0,1-4-9.68l36.94-36.94a5.66,5.66,0,0,1,8,8l-36.94,36.95A5.69,5.69,0,0,1,363.43,771.93Z"/><path d="M700.88,789.51a43.6,43.6,0,1,0-43.6-43.6A43.6,43.6,0,0,0,700.88,789.51Zm20.32-64.2a5.66,5.66,0,0,1,8,8l-37,36.95a5.67,5.67,0,0,1-8-8Zm-45.8,6.85,14.87-14.88a5.67,5.67,0,0,1,8,8l-14.87,14.87a5.66,5.66,0,0,1-8-8Z"/></g></g></svg>