<?xml version="1.0" encoding="UTF-8"?><svg id="_Слой_2" xmlns="http://www.w3.org/2000/svg" viewBox="0 0 350 350"><g id="_Слой_1-2"><g><path d="m350,134.01c-2.96,8.81-9.15,11.99-18.32,11.91-32.23-.28-64.47-.1-96.71-.12-7.58,0-12.94-3.26-15.19-9.34-2.26-6.1-.71-11.39,3.81-15.92,9.34-9.34,18.67-18.7,28.04-28.01.88-.87,1.99-1.52,3.74-2.83-6.98-5.15-12.84-10.25-19.39-14.2-47.92-28.89-107.27-20.86-145.95,19.6-8.24,8.62-14.88,18.38-19.53,29.43-2.29,5.45-4.71,10.85-7,16.3-1.38,3.3-3.69,5-7.34,4.99-14.69-.04-29.39.06-44.08-.06-5.9-.05-8.98-4.49-7.54-10.22,5.89-23.42,15.37-45.24,29.79-64.67,18.98-25.57,42.92-45.08,72.38-57.5C134.04,1.85,162.65-2,191.98.95c38.18,3.85,71.63,18.97,100.34,44.47,1.01.9,2.02,1.79,3.75,3.32,1.97-2.27,3.71-4.52,5.69-6.52,7.39-7.43,15.06-14.59,22.25-22.2,9.48-10.04,22.95-4.57,25.52,5.54.05.18.31.3.47.45v108Z"/><path d="m164.07,350c-6.41-.87-12.86-1.53-19.24-2.64-33.26-5.78-62.35-20.17-87.4-42.77-1-.9-2.01-1.79-3.86-3.43-.78,1.22-1.3,2.44-2.17,3.32-8.5,8.58-17.04,17.12-25.6,25.63-5.21,5.19-11.09,6.73-16.72,4.12C2.9,331.38-.01,326.39,0,319.51c.05-33.15,0-66.3.03-99.45,0-9.76,5.96-15.79,15.75-15.8,33.27-.05,66.53,0,99.8-.04,6.91,0,11.93,2.96,14.56,9.26,2.63,6.3.64,11.74-4.09,16.43-9.3,9.22-18.54,18.51-27.8,27.78-.79.79-1.54,1.61-2.39,2.5,10.93,10.33,23.24,18.32,37.14,23.42,39.25,14.42,76.34,9.83,110.6-14.29,16.12-11.36,28.45-26.11,36.17-44.47,2.16-5.14,4.51-10.19,6.62-15.35,1.47-3.6,3.91-5.29,7.86-5.26,13.9.09,27.8-.02,41.7.06,6.04.03,9.27,3.95,7.91,9.49-7.13,29.11-19.77,55.49-39.78,77.96-22.4,25.14-49.48,43.29-82.26,51.84-11.27,2.94-23.04,3.96-34.59,5.85-1.33.22-2.67.38-4.01.57h-19.14Z"/></g></g></svg>