<svg xmlns="http://www.w3.org/2000/svg" xmlns:xlink="http://www.w3.org/1999/xlink" viewBox="0 0 275 39"><defs><style>.cls-1,.cls-12,.cls-2,.cls-3,.cls-4,.cls-5,.cls-6,.cls-7,.cls-8{stroke:#231f20;}.cls-1,.cls-2,.cls-3,.cls-4,.cls-5,.cls-6,.cls-7,.cls-8{stroke-opacity:0.3;}.cls-1{fill:url(#Безымянный_градиент_28);}.cls-2{fill:url(#Безымянный_градиент_28-2);}.cls-3{fill:url(#Безымянный_градиент_28-3);}.cls-4{fill:url(#Безымянный_градиент_28-4);}.cls-5{fill:url(#Безымянный_градиент_28-5);}.cls-6{fill:url(#Безымянный_градиент_28-6);}.cls-7{fill:url(#Безымянный_градиент_28-7);}.cls-8{fill:url(#Безымянный_градиент_28-8);}.cls-9{fill:url(#Безымянный_градиент_16);}.cls-10{fill:url(#Безымянный_градиент_28-9);}.cls-11{opacity:0.3;}.cls-12{fill:none;}.cls-13{fill:url(#Безымянный_градиент_16-2);}.cls-14{fill:url(#Безымянный_градиент_44);}</style><linearGradient id="Безымянный_градиент_28" x1="-15182.53" y1="5072.59" x2="-15182.53" y2="4947.19" gradientTransform="matrix(0.02, 0.19, -1.52, 0.15, 8037.38, 2122.68)" gradientUnits="userSpaceOnUse"><stop offset="0" stop-color="#ffc22d"/><stop offset="1" stop-color="#ffd180"/></linearGradient><linearGradient id="Безымянный_градиент_28-2" x1="-15161.91" y1="5061.76" x2="-15161.91" y2="4936.36" xlink:href="#Безымянный_градиент_28"/><linearGradient id="Безымянный_градиент_28-3" x1="-15135.58" y1="5363.99" x2="-15135.58" y2="5238.59" gradientTransform="matrix(0.02, 0.19, -1.33, 0.14, 7511.18, 2176.32)" xlink:href="#Безымянный_градиент_28"/><linearGradient id="Безымянный_градиент_28-4" x1="-10526.84" y1="-70.21" x2="-10526.84" y2="-195.61" gradientTransform="matrix(-0.02, 0.19, 1.51, 0.15, 120.66, 2034.2)" xlink:href="#Безымянный_градиент_28"/><linearGradient id="Безымянный_градиент_28-5" x1="-10506.21" y1="-81.04" x2="-10506.21" y2="-206.44" gradientTransform="matrix(-0.02, 0.19, 1.51, 0.15, 120.66, 2034.2)" xlink:href="#Безымянный_градиент_28"/><linearGradient id="Безымянный_градиент_28-6" x1="-10479.88" y1="-515.81" x2="-10479.88" y2="-641.21" gradientTransform="matrix(-0.02, 0.19, 1.32, 0.13, 645.9, 2087.74)" xlink:href="#Безымянный_градиент_28"/><linearGradient id="Безымянный_градиент_28-7" x1="-15100.65" y1="5594.5" x2="-15100.65" y2="5490.24" gradientTransform="matrix(0.02, 0.19, -0.72, 0.07, 4506.79, 2482.57)" xlink:href="#Безымянный_градиент_28"/><linearGradient id="Безымянный_градиент_28-8" x1="-10444.9" y1="-556.72" x2="-10444.9" y2="-660.98" gradientTransform="matrix(-0.02, 0.19, 0.73, 0.07, 315.31, 2054.04)" xlink:href="#Безымянный_градиент_28"/><linearGradient id="Безымянный_градиент_16" x1="137.59" y1="5029.5" x2="137.59" y2="5067.5" gradientTransform="matrix(1, 0, 0, -1, 0, 5068)" gradientUnits="userSpaceOnUse"><stop offset="0" stop-color="#ff8300"/><stop offset="1" stop-color="#fff4ad"/></linearGradient><linearGradient id="Безымянный_градиент_28-9" x1="137.59" y1="38.5" x2="137.59" y2="0.5" gradientTransform="matrix(1, 0, 0, 1, 0, 0)" xlink:href="#Безымянный_градиент_28"/><linearGradient id="Безымянный_градиент_16-2" x1="137.59" y1="5032.55" x2="137.59" y2="5057.42" xlink:href="#Безымянный_градиент_16"/><linearGradient id="Безымянный_градиент_44" x1="137.59" y1="35.45" x2="137.59" y2="10.58" gradientUnits="userSpaceOnUse"><stop offset="0" stop-color="#ffc32e"/><stop offset="1" stop-color="#ffd180"/></linearGradient></defs><g id="Слой_2" data-name="Слой 2"><g id="Layer_1" data-name="Layer 1"><path className="cls-1" d="M57.11,31.58h0C56,23.37,140.67,10.8,246.26,3.51h0c1.12,8.2-83.56,20.77-189.15,28.07Z"/><path className="cls-2" d="M73.92,33.81h0C72.8,25.61,157.48,13,263.07,5.74h0C264.19,14,179.51,26.52,73.92,33.81Z"/><path className="cls-3" d="M109.07,34.86h0C108,26.64,182.07,15.53,274.49,10h0c1.06,8.22-73,19.33-165.42,24.82Z"/><path className="cls-4" d="M217.49,31.53h0c1.12-8.2-83.4-20.75-188.8-28h0c-1.12,8.21,83.41,20.76,188.8,28Z"/><path className="cls-5" d="M200.71,33.78h0c1.12-8.21-83.4-20.76-188.8-28h0c-1.12,8.21,83.41,20.76,188.8,28Z"/><path className="cls-6" d="M165.62,34.83h0C166.69,26.61,92.77,15.52.51,10h0C-.55,18.26,73.37,29.35,165.62,34.83Z"/><path className="cls-7" d="M167.05,36.77h0c-.8-8.22,32.51-16.19,74.41-17.8h0c.8,8.22-32.51,16.19-74.41,17.8Z"/><path className="cls-8" d="M108.86,36.88h0c.8-8.22-32.93-16.24-75.34-17.91h0c-.81,8.22,32.93,16.24,75.34,17.91Z"/><g id="Слой_2-2" data-name="Слой 2"><g id="Layer_1-2" data-name="Layer 1"><path className="cls-9" d="M206.87,38.5H68.32c-4.82,0-8.24-3.23-10.59-6.94L43.78,11.1C41.93,6.06,45.19.5,50,.5H225.18c4.81,0,8.08,5.56,6.22,10.6L217.46,31.57C215.42,35.27,211.68,38.5,206.87,38.5Z"/></g><g id="Layer_1-3" data-name="Layer 1"><path className="cls-10" d="M206.87,38.5H68.32c-4.82,0-8.24-3.23-10.59-6.94L43.78,11.1C41.93,6.06,45.19.5,50,.5H225.18c4.81,0,8.08,5.56,6.22,10.6L217.46,31.57C215.42,35.27,211.68,38.5,206.87,38.5Z"/></g><g className="cls-11"><g id="Layer_1-4" data-name="Layer 1"><path className="cls-12" d="M206.87,38.5H68.32c-4.82,0-8.24-3.23-10.59-6.94L43.78,11.1C41.93,6.06,45.19.5,50,.5H225.18c4.81,0,8.08,5.56,6.22,10.6L217.46,31.57C215.42,35.27,211.68,38.5,206.87,38.5Z"/></g></g></g><g id="Слой_2-3" data-name="Слой 2"><g id="Layer_1-5" data-name="Layer 1"><path className="cls-13" d="M192.94,35.45H82.24c-3.52,0-6.63-1.83-7.75-4.54L66.15,10.58H209l-8.35,20.33C199.58,33.62,196.46,35.45,192.94,35.45Z"/></g><g id="Layer_1-6" data-name="Layer 1"><path className="cls-14" d="M192.94,35.45H82.24c-3.52,0-6.63-1.83-7.75-4.54L66.15,10.58H209l-8.35,20.33C199.58,33.62,196.46,35.45,192.94,35.45Z"/></g><g className="cls-11"><g id="Layer_1-7" data-name="Layer 1"><path className="cls-12" d="M192.94,35.45H82.24c-3.52,0-6.63-1.83-7.75-4.54L66.15,10.58H209l-8.35,20.33C199.58,33.62,196.46,35.45,192.94,35.45Z"/></g></g></g></g></g></svg>